HIERARCHY
ROOT Hips
{
 OFFSET 0.000000 0.000000 0.000000
 CHANNELS 6 Xposition Yposition Zposition Yrotation Xrotation Zrotation
 JOINT Chest
 {
  OFFSET 0.000000 9.585900 0.002600
  CHANNELS 3 Yrotation Xrotation Zrotation
  JOINT Chest2
  {
   OFFSET 0.000000 9.601200 -0.005300
   CHANNELS 3 Yrotation Xrotation Zrotation
   JOINT Chest3
   {
    OFFSET 0.000000 9.561800 0.000000
    CHANNELS 3 Yrotation Xrotation Zrotation
    JOINT Chest4
    {
     OFFSET 0.000000 9.552100 0.000000
     CHANNELS 3 Yrotation Xrotation Zrotation
     JOINT Neck
     {
      OFFSET 0.000000 14.453000 0.000000
      CHANNELS 3 Yrotation Xrotation Zrotation
      JOINT Head
      {
       OFFSET 0.000000 8.936500 -0.011300
       CHANNELS 3 Yrotation Xrotation Zrotation
       End Site
       {
        OFFSET 0.000000 17.073600 -0.006000
       }
      }
     }
     JOINT RightCollar
     {
      OFFSET -2.921100 9.558500 0.000000
      CHANNELS 3 Yrotation Xrotation Zrotation
      JOINT RightShoulder
      {
       OFFSET -13.519700 0.000000 0.000000
       CHANNELS 3 Yrotation Xrotation Zrotation
       JOINT RightElbow
       {
        OFFSET 0.000000 -29.696600 0.000000
        CHANNELS 3 Yrotation Xrotation Zrotation
        JOINT RightWrist
        {
         OFFSET 0.000000 -24.004700 0.000000
         CHANNELS 3 Yrotation Xrotation Zrotation
         End Site
         {
          OFFSET 0.000000 -17.728500 0.000000
         }
        }
       }
      }
     }
     JOINT LeftCollar
     {
      OFFSET 2.921100 9.558500 0.000000
      CHANNELS 3 Yrotation Xrotation Zrotation
      JOINT LeftShoulder
      {
       OFFSET 13.519700 0.000000 0.000000
       CHANNELS 3 Yrotation Xrotation Zrotation
       JOINT LeftElbow
       {
        OFFSET 0.000000 -29.696600 0.000000
        CHANNELS 3 Yrotation Xrotation Zrotation
        JOINT LeftWrist
        {
         OFFSET 0.000000 -24.004700 0.000000
         CHANNELS 3 Yrotation Xrotation Zrotation
         End Site
         {
          OFFSET 0.000000 -17.728500 0.000000
         }
        }
       }
      }
     }
    }
   }
  }
 }
 JOINT RightHip
 {
  OFFSET -7.771700 -0.012900 -0.001300
  CHANNELS 3 Yrotation Xrotation Zrotation
  JOINT RightKnee
  {
   OFFSET 0.000000 -40.869800 0.001200
   CHANNELS 3 Yrotation Xrotation Zrotation
   JOINT RightAnkle
   {
    OFFSET 0.000000 -39.717900 0.002100
    CHANNELS 3 Yrotation Xrotation Zrotation
    JOINT RightToe
    {
     OFFSET 0.000000 -4.965400 11.033500
     CHANNELS 3 Yrotation Xrotation Zrotation
     End Site
     {
      OFFSET 0.000000 -1.423100 5.872300
     }
    }
   }
  }
 }
 JOINT LeftHip
 {
  OFFSET 7.771700 -0.012900 -0.001300
  CHANNELS 3 Yrotation Xrotation Zrotation
  JOINT LeftKnee
  {
   OFFSET 0.000000 -40.869800 0.001200
   CHANNELS 3 Yrotation Xrotation Zrotation
   JOINT LeftAnkle
   {
    OFFSET 0.000000 -39.717900 0.002100
    CHANNELS 3 Yrotation Xrotation Zrotation
    JOINT LeftToe
    {
     OFFSET 0.000000 -4.965400 11.033500
     CHANNELS 3 Yrotation Xrotation Zrotation
     End Site
     {
      OFFSET 0.000000 -1.423100 5.872300
     }
    }
   }
  }
 }
}
MOTION
Frames: 11
Frame Time: 0.008333
0.000000 85.388000 0.000000 0.000000 -5.767877 0.000000 0.000000 11.653817 0.000000 0.000000 -5.885947 0.000000 0.000000 -0.000000 0.000000 0.000000 -0.000000 0.000000 0.000000 12.528835 0.000000 0.000000 0.711642 0.000000 0.000000 -0.000000 0.000000 0.000000 0.000000 -90.000000 0.000000 -2.309062 0.000000 0.000000 2.309062 0.000000 0.000000 -0.000000 0.000000 0.000000 -0.000000 90.000000 0.000000 -2.309062 0.000000 0.000000 2.309062 0.000000 0.000000 8.520406 0.000000 0.000000 1.905762 0.000000 -0.000000 -4.658285 0.000000 0.000000 -0.000000 0.000000 0.000000 8.520406 0.000000 0.000000 1.905762 0.000000 -0.000000 -4.658285 0.000000 0.000000 -0.000000 0.000000
-188.522605 57.533830 -59.705828 156.421129 -10.074591 1.651710 3.334970 5.785608 2.490700 0.109709 0.236761 0.068928 0.173199 0.410766 0.126970 2.842744 5.588999 1.673457 1.206072 16.379998 -2.015790 2.878300 -5.291486 -4.117579 3.044711 9.513335 0.536931 -10.929489 -14.855446 -9.917883 -124.474115 -81.753243 142.039911 -5.325478 3.469961 -29.517206 -6.281563 8.406968 -2.915662 22.600521 -9.596761 0.541720 150.759178 -82.902885 -174.020889 -3.396142 8.069275 7.037320 -15.486913 -62.030993 8.580693 -28.617492 71.972874 -28.285519 -1.558979 -5.438723 -3.522682 -0.411086 0.788993 -0.193628 4.542445 -63.983379 15.479696 40.270353 66.709165 32.898720 -15.801843 -9.535926 4.262420 -0.077287 -0.988623 -0.086011
-188.527008 57.532859 -59.705537 156.435873 -10.069552 1.653235 3.356426 5.789170 2.473848 0.111221 0.237546 0.068683 0.182634 0.412603 0.127267 2.916637 5.605850 1.647184 1.190073 16.442242 -1.997905 2.878883 -5.201441 -4.104001 2.952924 9.479736 0.584214 -10.909899 -14.754666 -9.871439 -124.631583 -81.646995 142.207891 -5.334724 3.460242 -29.550014 -6.196722 8.455108 -2.846589 22.687693 -9.424922 0.394831 148.543484 -82.658359 -171.924596 -3.346793 8.043137 7.100780 -15.479367 -62.037094 8.557037 -28.612091 71.971873 -28.275741 -1.554975 -5.443743 -3.519222 -0.417707 0.795009 -0.192231 4.474700 -63.995192 15.475487 40.359101 66.686397 33.010985 -15.767754 -9.506193 4.237172 -0.102631 -1.005531 -0.089528
-188.530633 57.531510 -59.703069 156.436193 -10.054587 1.645496 3.390204 5.782631 2.466883 0.121680 0.241080 0.064488 0.178029 0.411093 0.132763 2.960842 5.615802 1.628928 1.190568 16.498434 -1.986698 2.902099 -5.086833 -4.100313 2.941266 9.462277 0.605489 -10.938251 -14.647318 -9.791031 -124.816647 -81.541425 142.402072 -5.347010 3.442395 -29.585113 -6.129974 8.497510 -2.793833 22.824173 -9.240618 0.241756 146.466451 -82.411859 -169.962496 -3.302161 8.012616 7.152374 -15.494713 -62.048902 8.576268 -28.597243 71.962528 -28.266833 -1.544094 -5.432785 -3.510274 -0.423233 0.793354 -0.194572 4.427131 -64.016015 15.491603 40.397996 66.672074 33.070571 -15.758888 -9.484687 4.215384 -0.097168 -1.008801 -0.081395
-188.530407 57.530708 -59.702625 156.439733 -10.060566 1.619617 3.421126 5.795928 2.478852 0.123306 0.242024 0.064126 0.181160 0.412180 0.130533 2.990494 5.621935 1.620375 1.206848 16.562644 -1.982544 2.928089 -4.967189 -4.095761 2.945010 9.448570 0.619980 -10.968413 -14.552421 -9.713337 -124.876753 -81.441021 142.475679 -5.363883 3.424501 -29.625823 -6.074556 8.536979 -2.752122 22.984793 -9.048377 0.085402 144.536810 -82.159380 -168.148568 -3.263700 7.979096 7.198669 -15.522845 -62.033451 8.607103 -28.592422 71.957298 -28.254403 -1.538642 -5.430761 -3.513570 -0.428525 0.792376 -0.192758 4.361508 -64.014169 15.548054 40.380498 66.666477 33.079408 -15.784859 -9.475398 4.192533 -0.068131 -0.996869 -0.066567
-188.533076 57.529794 -59.702046 156.441069 -10.058745 1.609233 3.436621 5.797862 2.482264 0.142034 0.248703 0.055687 0.183478 0.413654 0.130009 3.021387 5.629330 1.610111 1.223891 16.629485 -1.977524 2.955128 -4.842535 -4.089785 2.950742 9.436141 0.633548 -10.998101 -14.453581 -9.627937 -124.967022 -81.343963 142.578704 -5.382768 3.413062 -29.671927 -6.021239 8.577611 -2.714974 23.144894 -8.858439 -0.067486 142.751612 -81.897557 -166.483759 -3.227044 7.946584 7.241016 -15.500493 -62.027396 8.589389 -28.590114 71.944698 -28.242125 -1.518715 -5.439819 -3.504211 -0.446494 0.807666 -0.196549 4.303659 -64.020433 15.574939 40.409739 66.655389 33.129612 -15.775554 -9.454810 4.177595 -0.085448 -1.000786 -0.068378
-188.541715 57.528548 -59.701058 156.447348 -10.040231 1.629954 3.443786 5.784601 2.452442 0.145099 0.250127 0.055747 0.243760 0.435984 0.103583 3.016588 5.622291 1.617229 1.240212 16.699088 -1.971296 2.980261 -4.712784 -4.081349 2.947362 9.428461 0.646759 -11.019534 -14.354283 -9.535659 -125.078927 -81.248983 142.703824 -5.398555 3.408015 -29.722278 -5.972605 8.618386 -2.682549 23.307153 -8.672986 -0.213050 141.096230 -81.630198 -164.957272 -3.187957 7.916110 7.280620 -15.454095 -62.049939 8.537117 -28.607418 71.928013 -28.272305 -1.483641 -5.444708 -3.475565 -0.473586 0.825081 -0.205540 4.281533 -64.040443 15.540376 40.484459 66.633925 33.216209 -15.784924 -9.414340 4.167049 -0.081994 -1.021417 -0.073709
-188.546835 57.527581 -59.701058 156.458717 -10.035576 1.633566 3.471402 5.791246 2.434630 0.126730 0.244139 0.063525 0.269765 0.445352 0.094476 3.045580 5.630503 1.608089 1.255408 16.770986 -1.964333 3.002920 -4.578944 -4.070984 2.984650 9.453115 0.636048 -11.089730 -14.275234 -9.401625 -125.207116 -81.156821 142.840861 -5.413795 3.402825 -29.772202 -5.925959 8.659792 -2.654519 23.470422 -8.493690 -0.350746 139.563152 -81.362496 -163.562408 -3.145732 7.887596 7.318298 -15.437359 -62.056448 8.511261 -28.606817 71.923754 -28.273310 -1.479977 -5.448180 -3.473298 -0.485042 0.830561 -0.201187 4.229545 -64.048258 15.543275 40.544870 66.614191 33.289646 -15.798427 -9.374535 4.167240 -0.067829 -1.039325 -0.086973
-188.549217 57.526705 -59.701231 156.479148 -10.038581 1.622191 3.495360 5.804645 2.429868 0.128263 0.245228 0.063242 0.261452 0.443543 0.099423 3.086802 5.646791 1.593963 1.270705 16.844123 -1.956898 3.025566 -4.442804 -4.059573 2.994360 9.468124 0.639410 -11.126039 -14.186887 -9.283576 -125.342160 -81.069094 142.980065 -5.428487 3.395457 -29.812763 -5.879924 8.702142 -2.628234 23.632122 -8.322002 -0.482167 138.173922 -81.095475 -162.316494 -3.103151 7.861927 7.351035 -15.450274 -62.052823 8.508811 -28.614008 71.922148 -28.280219 -1.474646 -5.442088 -3.468661 -0.491555 0.823982 -0.201168 4.150816 -64.050301 15.573597 40.587258 66.599825 33.347709 -15.801917 -9.347017 4.153105 -0.058103 -1.045869 -0.084463
-188.550792 57.525734 -59.701225 156.492031 -10.042330 1.608959 3.570442 5.835982 2.416666 0.121301 0.242956 0.067322 0.195767 0.417598 0.124671 3.152297 5.677187 1.569878 1.287008 16.917320 -1.948895 3.050006 -4.306571 -4.047556 2.988254 9.472478 0.648523 -11.143481 -14.090652 -9.169073 -125.455391 -80.984714 143.097613 -5.437686 3.390199 -29.838040 -5.834757 8.745234 -2.601556 23.791506 -8.159205 -0.609385 136.939455 -80.831145 -161.225060 -3.062886 7.839466 7.379430 -15.470794 -62.047121 8.519841 -28.616717 71.921360 -28.281687 -1.473937 -5.436820 -3.472676 -0.495036 0.817647 -0.197940 4.072056 -64.051278 15.612745 40.628677 66.586309 33.404085 -15.797483 -9.321896 4.132292 -0.060536 -1.051015 -0.076542
-188.553169 57.524558 -59.700694 156.502236 -10.041264 1.601692 3.604929 5.851947 2.408977 0.133872 0.249562 0.062357 0.223013 0.432271 0.114470 3.150892 5.672399 1.571764 1.304229 16.989759 -1.940041 3.075988 -4.171746 -4.034351 2.980709 9.477894 0.657701 -11.160971 -13.993423 -9.047851 -125.522543 -80.899595 143.175234 -5.444261 3.387544 -29.849228 -5.789403 8.790143 -2.575188 23.948019 -8.004281 -0.732560 135.862739 -80.575056 -160.285899 -3.024936 7.817335 7.403046 -15.480723 -62.047648 8.523678 -28.611759 71.918967 -28.282871 -1.466027 -5.429885 -3.466303 -0.504046 0.811903 -0.205909 4.010156 -64.055454 15.638628 40.662109 66.571943 33.452773 -15.800993 -9.294162 4.110320 -0.056114 -1.060852 -0.070076
